<svg xmlns="http://www.w3.org/2000/svg" width="496.591" height="387.041" viewBox="0 0 496.591 387.041"><defs><style>.a{fill:#eef;}.b{fill:#f9f9ff;}.c,.e,.h,.k{fill:none;}.c,.e,.f{stroke:#bda7ed;}.c,.f,.h,.k{stroke-linecap:round;}.c,.f,.h{stroke-linejoin:round;}.d,.f,.g{fill:#fff;}.e,.k{stroke-miterlimit:10;}.g{stroke:#707070;}.h,.k{stroke:#6e47a8;}.i{fill:#d5caff;}.j{fill:#bda7ed;}.l{fill:#ff6558;}.m{fill:#6e47a8;}</style></defs><path class="a" d="M127.7,570.939c-30.8-46.765,32.576-70.5,29.347-101.319s-83.9-50.211-11.735-129.7,262.573-88.817,350.093-51.244,48.09,71.788,60.806,95.263,74.42,54.954,50.2,121.789c-48.441,133.67-176.034,76.7-237.01,80.385C310,589.7,195.708,674.179,127.7,570.939Z" transform="translate(-115.403 -259.064)"/><path class="b" d="M605.281,1186.688H594.7v13.629H575.058v-13.629H537.41v-13.125l31.951-44.473H590.22l-29,41.623h14.446V1158.6H594.7v12.11h10.58Z" transform="translate(-461.733 -966.219)"/><path class="b" d="M2166.875,1186.688h-10.58v13.629h-19.636v-13.629H2099v-13.125l31.95-44.473h20.861l-29,41.623h14.448V1158.6h19.028v12.11h10.58Z" transform="translate(-1743.289 -966.219)"/><path class="c" d="M596.864,1172.6h-10.58v13.629H566.641V1172.6H529v-13.127L560.951,1115H581.8l-29,41.625H567.25v-12.11h19.03v12.11h10.58Z" transform="translate(-454.831 -954.655)"/><path class="c" d="M2158.441,1172.6h-10.58v13.629h-19.643V1172.6H2090.57v-13.127l31.95-44.473h20.861l-29,41.62h14.448v-12.11h19.023v12.11h10.581Z" transform="translate(-1736.371 -954.655)"/><circle class="b" cx="94.186" cy="94.186" r="94.186" transform="translate(155.689 98.106)"/><path class="d" d="M990.04,868.576a94.186,94.186,0,0,1,157.474-69.756A94.188,94.188,0,1,0,1014.47,931.865,93.838,93.838,0,0,1,990.04,868.576Z" transform="translate(-827.884 -669.816)"/><path class="a" d="M1198.566,971.55a94.194,94.194,0,0,1-158.526,100.188A94.194,94.194,0,1,0,1198.566,971.55Z" transform="translate(-874.228 -836.93)"/><circle class="e" cx="94.186" cy="94.186" r="94.186" transform="translate(155.689 98.106)"/><ellipse class="f" cx="12.23" cy="12.54" rx="12.23" ry="12.54" transform="translate(257.449 221.891) rotate(-77.38)"/><path class="f" d="M1579.71,1338.889a12.39,12.39,0,0,0-14.909,9.2,12.044,12.044,0,0,0-.231,1.453,12.582,12.582,0,0,1,24.3,5.437,12.237,12.237,0,0,0,.409-1.413A12.382,12.382,0,0,0,1579.71,1338.889Z" transform="translate(-1304.696 -1138.139)"/><path class="f" d="M1811.528,1428.591a9.9,9.9,0,1,0,7.369,12.117A10.029,10.029,0,0,0,1811.528,1428.591Z" transform="translate(-1497.024 -1211.741)"/><path class="f" d="M1811.9,1428.591a10.029,10.029,0,0,0-12.3,7.064,9.588,9.588,0,0,0-.224,1.169,10.186,10.186,0,0,1,19.525,5.009,9.816,9.816,0,0,0,.359-1.133A10.014,10.014,0,0,0,1811.9,1428.591Z" transform="translate(-1497.398 -1211.741)"/><ellipse class="f" cx="12.39" cy="14.088" rx="12.39" ry="14.088" transform="translate(276.733 181.237) rotate(-88.93)"/><path class="f" d="M1674.1,1094.767c-7.779-.144-14.188,5.285-14.316,12.126a11.085,11.085,0,0,0,.074,1.488c.95-6.124,6.979-10.774,14.186-10.639s13.06,5.005,13.781,11.16a10.964,10.964,0,0,0,.129-1.485C1688.079,1100.576,1681.877,1094.913,1674.1,1094.767Z" transform="translate(-1382.833 -938.049)"/><path class="f" d="M1153.387,1188.13c-2.274-5.559-9.083-8.054-15.21-5.559s-9.25,9.043-6.976,14.612,9.083,8.055,15.21,5.559S1155.661,1193.7,1153.387,1188.13Z" transform="translate(-948.432 -1009.315)"/><path class="f" d="M1153.387,1188.13c-2.274-5.559-9.083-8.054-15.21-5.559s-9.25,9.043-6.976,14.612a9.941,9.941,0,0,0,.574,1.178c-1.383-5.265,1.716-11.05,7.392-13.369s11.936-.359,14.635,4.376A10.121,10.121,0,0,0,1153.387,1188.13Z" transform="translate(-948.432 -1009.315)"/><path class="f" d="M1370.095,1355.931c-2.331-.179-4.345,1.27-4.5,3.228s1.614,3.7,3.945,3.879,4.345-1.27,4.5-3.228S1372.428,1356.111,1370.095,1355.931Z" transform="translate(-1141.398 -1152.369)"/><path class="f" d="M1892.723,1273.251c-2.353-.179-4.383,1.266-4.533,3.228s1.637,3.7,3.992,3.881,4.385-1.268,4.533-3.228S1895.077,1273.43,1892.723,1273.251Z" transform="translate(-1570.275 -1084.516)"/><ellipse class="f" cx="3.567" cy="4.612" rx="3.567" ry="4.612" transform="matrix(0.076, -0.997, 0.997, 0.076, 267.064, 258.814)"/><path class="d" d="M1432.26,819.443c0,14.425,59.906,10.222,70.538-34.985,5.353-21-6.974-31.432-10.849-33.789.832,4.672,9.219,29.148-17.059,48.877C1461.648,809.487,1432.26,804.644,1432.26,819.443Z" transform="translate(-1196.113 -655.659)"/><path class="a" d="M1194.147,691.939c-5.19-29.655-51.8-37.246-68.567-6.567-26.9-11.927-44.634-3.931-52.313,9.146l-3.911,24.794c-5.833,19.435,8.349,26.989,14.273,22.665.963-.7,6.6-.359,7.379.9,6.3,10.094,28.6,5.269,32.386,4.393,14.958-3.456,16.869-9.639,24.209-11.357,5.061-1.184,7.876-.624,11.477.029C1160.715,736.224,1199.887,727.333,1194.147,691.939Z" transform="translate(-897.154 -585.945)"/><path class="g" d="M1170.4,656.733c-5.19-29.655-51.8-37.25-68.567-6.567-26.9-11.925-45.438-4.37-52.313,9.137a46.875,46.875,0,0,0-2.394,5.765,79.419,79.419,0,0,0-7.492-4.827.407.407,0,0,0-.554.538c2.984,5.884,4.933,9.359,6.2,11.414a27.645,27.645,0,0,0,.326,11.9c-5.833,19.435,8.349,26.989,14.272,22.665.963-.7.448-3.332.929-4.564a7.091,7.091,0,0,0,4.91.983c2.03,15.827,29.666,9.863,33.927,8.869,14.958-3.456,16.869-9.639,24.209-11.357s9.962.237,17.12.823S1176.136,692.126,1170.4,656.733Z" transform="translate(-873.404 -557.05)"/><path class="h" d="M1073.334,659.309c7.679-13.066,25.411-21.062,52.313-9.137,16.765-30.679,63.378-23.088,68.567,6.567,5.739,35.394-22.254,45.37-29.409,44.783s-9.772-2.541-17.12-.823-9.26,7.9-24.209,11.357c-4.261.984-31.9,6.958-33.927-8.869a7.091,7.091,0,0,1-4.91-.983c-.481,1.232.034,3.863-.929,4.564-5.918,4.324-20.106-3.228-14.273-22.665" transform="translate(-897.221 -557.057)"/><path class="i" d="M1296.8,739.7c-.947-5.518-3.463-7.666-2.81-3.864,5.581,35.04-21.614,44.918-28.567,44.338s-9.492-2.511-16.629-.816-8.993,7.824-23.521,11.244c-3.339.787-21.465,4.788-29.372-1.935,4.858,11.879,28.333,6.705,32.182,5.8,14.526-3.422,16.383-9.542,23.521-11.244s9.684.235,16.627.814S1302.371,774.738,1296.8,739.7Z" transform="translate(-1002.138 -641.909)"/><path class="i" d="M1091.755,1015.756c-2.611,2.044-6.938,1.435-10.205-1.836,3.049,6.517,9.465,8.428,12.911,5.738.656-.515.717-2.394.8-3.669a8.275,8.275,0,0,1-2.869-1.551A3.049,3.049,0,0,1,1091.755,1015.756Z" transform="translate(-908.294 -871.702)"/><path class="j" d="M1441.422,831.222c.42,14.409,59.6,10.338,70.088-34.82,5.283-20.981-6.12-31.619-9.98-33.982C1514.053,829.287,1440.805,810.017,1441.422,831.222Z" transform="translate(-1203.628 -665.302)"/><path class="h" d="M1491.949,750.67c13.3,67.359-59.689,48.752-59.689,68.773,0,14.425,59.906,10.222,70.538-34.985C1508.151,763.461,1495.824,753.026,1491.949,750.67Z" transform="translate(-1196.113 -655.659)"/><path class="i" d="M1213.712,812.22a24.459,24.459,0,0,1,16.437,7.033c1.368,1.539.538,7.763-1.883,9.7C1225.5,816.423,1213.459,812.213,1213.712,812.22Z" transform="translate(-1016.752 -706.172)"/><path class="a" d="M1224.976,834.67a.421.421,0,0,0-.513.538c1.175,3.565,2.189,5.828,2.853,6.23.7.429,2.241-.2,6.874,3.741C1234.943,845.835,1232.325,837.128,1224.976,834.67Z" transform="translate(-1025.562 -724.583)"/><path class="k" d="M1224.27,829.7c.064-1.562-4.3-12.911-14.637-16.364a.667.667,0,0,0-.805.859c1.435,4.971,2.869,8.557,3.945,9.813" transform="translate(-1012.724 -707.065)"/><path class="i" d="M1040.969,794.479c6.423.588,13.783,2.071,14.624,4.166,1.031,2.57.237,5.69-.179,6.856C1053.522,802.045,1040.623,794.447,1040.969,794.479Z" transform="translate(-874.985 -691.613)"/><path class="k" d="M1047.586,810.975c-.016.048-.934.6-8.511-14.346a.407.407,0,0,1,.554-.538c3.531,1.856,12.865,8.375,14.151,10.352" transform="translate(-873.404 -692.898)"/><path class="i" d="M1416.275,654.64c-6.492,4.541-12.282,12.162-10.34,21.639.129.633-.231.976-.538.511a18.059,18.059,0,0,0-7.67-6.579c-.576-.246-.776-.371-.434-.9a38.816,38.816,0,0,1,17.789-15.8C1417.919,652.275,1419.423,652.44,1416.275,654.64Z" transform="translate(-1167.279 -575.292)"/><ellipse class="f" cx="16.943" cy="17.99" rx="16.943" ry="17.99" transform="matrix(0.056, -0.998, 0.998, 0.056, 200.834, 263.007)"/><path class="f" d="M1259.368,1504.211c-9.919-.556-18.383,6.569-18.9,15.912a16.1,16.1,0,0,0,.014,2.039c1.535-8.326,9.474-14.4,18.664-13.889s16.4,7.437,17,15.879a15.953,15.953,0,0,0,.242-2.023C1276.9,1512.786,1269.284,1504.763,1259.368,1504.211Z" transform="translate(-1038.689 -1274.046)"/><path class="a" d="M2667.265,763.3c-23.251-20.346-38.752-34.581-31-57.5s18.731-1.011,27.127,18.334C2683.876,771.347,2679.477,774.245,2667.265,763.3Z" transform="translate(-2182.552 -610.791)"/><path class="a" d="M1080.973,2130.653c66.014-23.96,72.406-25.613,94.067-16.128s14.009,31.434-14.585,40.707C1140.847,2161.59,1004.024,2155.375,1080.973,2130.653Z" transform="translate(-888.717 -1770.514)"/><path class="l" d="M1783.578,288.74l2.968,5.428,5.428,2.968-5.428,2.97-2.968,5.426-2.969-5.426-5.428-2.97,5.428-2.968Z" transform="translate(-1456.843 -236.961)"/><path class="l" d="M2337.6,73.01l2.1,3.843,3.843,2.1-3.843,2.1-2.1,3.843-2.1-3.843-3.843-2.1,3.843-2.1Z" transform="translate(-1913.533 -59.917)"/><path class="l" d="M912.384,1589.6l2.342,4.281,4.282,2.344-4.282,2.342-2.342,4.282-2.342-4.282-4.282-2.342,4.282-2.344Z" transform="translate(-743.333 -1304.543)"/><path class="l" d="M481.753,1856.6l2.01,3.673,3.673,2.009-3.673,2.01-2.01,3.672-2.008-3.672-3.674-2.01,3.674-2.009Z" transform="translate(-390.699 -1523.663)"/><circle class="l" cx="3.014" cy="3.014" r="3.014" transform="translate(354.3 119.802)"/><circle class="l" cx="2.573" cy="2.573" r="2.573" transform="translate(104.995 300.203) rotate(-76.52)"/><circle class="l" cx="3.014" cy="3.014" r="3.014" transform="translate(116.862 273.322)"/><circle class="l" cx="3.014" cy="3.014" r="3.014" transform="translate(397.218 73.956)"/><circle class="l" cx="3.014" cy="3.014" r="3.014" transform="translate(351.288)"/><path class="i" d="M1556.606,914.748c-9.2,10.471-24.227,9.5-33.086,5.181a1.063,1.063,0,0,0-1.522,1.033c.737,9.146,9.233,9.854,13.191,10.392,4.062.554,19.394-3.5,22.437-13.939C1557.761,916.934,1556.932,914.371,1556.606,914.748Z" transform="translate(-1269.755 -790.283)"/><path class="k" d="M1669.29,1103.648q1.229-.745,2.383-1.578" transform="translate(-1390.637 -944.044)"/><path class="k" d="M1474.86,1123.3c4.514,1.853,20.5.94,32.637-5.4" transform="translate(-1231.074 -957.036)"/><path class="k" d="M1164.922,727.19c-8.335,2.423-15.2,10.926-16.172,18.225" transform="translate(-963.444 -636.39)"/><path class="j" d="M1114.9,918.1c-3.981-8.914-14.475-3.717-25.726-7.117s-11.624,1.469-10,6.517c6.635,11.683,14.018,17.861,31.291,12.912C1114.051,929.37,1116.3,921.232,1114.9,918.1Z" transform="translate(-905.762 -786.291)"/><path class="m" d="M1190.828,989.679a15.9,15.9,0,0,0,4.255-.077c1.723-.283-.886,2.346-3.972,1.793C1189.412,991.022,1188.262,989.892,1190.828,989.679Z" transform="translate(-996.744 -851.727)"/><path class="m" d="M1116.774,979.7a11.779,11.779,0,0,0,3.543.812c1.5.086-1.365,2.073-3.766.9C1115.241,980.692,1114.592,979.367,1116.774,979.7Z" transform="translate(-936.032 -843.572)"/><path class="m" d="M1161.334,1014.217c-1.268-1.011-6.264-1.84-8.016-.746-1.291.8,2.089,3.436,3.992,3.563C1159.326,1017.175,1162.6,1015.232,1161.334,1014.217Z" transform="translate(-966.958 -870.909)"/><path class="k" d="M1129.493,871.605c.081,4.44-2.1,16.129-10.415,19.206s-27.8,6.515-29.815,5.877a27.506,27.506,0,0,1-16.955-17.624c-2.392-7.88-.863-12.773-.863-12.773" transform="translate(-899.606 -750.546)"/><path class="j" d="M1121.488,549.186l6.669-7.978h-5.729a1.343,1.343,0,0,1-.907-.265.883.883,0,0,1-.307-.7.944.944,0,0,1,.307-.732,1.309,1.309,0,0,1,.907-.278h7.385q1.435,0,1.435,1.338a1.89,1.89,0,0,1-.239,1.017,12.182,12.182,0,0,1-.967,1.232l-6.233,7.42h6.872a1.394,1.394,0,0,1,.913.253.863.863,0,0,1,.3.7.954.954,0,0,1-.3.744,1.317,1.317,0,0,1-.913.274h-8.428a1.894,1.894,0,0,1-1.293-.386,1.313,1.313,0,0,1-.434-1.031,1.15,1.15,0,0,1,.072-.407,1.507,1.507,0,0,1,.19-.359c.081-.109.19-.249.332-.416Z" transform="translate(-940.279 -482.136)"/><path class="j" d="M1072.042,636.995l4.449-5.324h-3.823a.9.9,0,0,1-.606-.179.59.59,0,0,1-.2-.468.631.631,0,0,1,.2-.488.873.873,0,0,1,.606-.179h4.928q.958,0,.958.9a1.272,1.272,0,0,1-.16.68,8.44,8.44,0,0,1-.644.821l-4.16,4.953h4.585a.941.941,0,0,1,.61.167.582.582,0,0,1,.2.47.64.64,0,0,1-.2.5.882.882,0,0,1-.61.179h-5.625a1.255,1.255,0,0,1-.863-.256.874.874,0,0,1-.291-.689.733.733,0,0,1,.048-.271.933.933,0,0,1,.127-.235c.052-.072.127-.165.221-.276Z" transform="translate(-899.96 -556.919)"/><path class="a" d="M1055.316,816.843c-.116-.228.2-.4.463-.247,3.081,1.783,11.983,8.317,10.134,8.07-2.152-.287-4.263.179-4.921,1.558C1060.549,827.149,1056.349,818.862,1055.316,816.843Z" transform="translate(-886.745 -709.715)"/></svg>